<svg width="1000" height="1000" viewBox="0 0 1000 1000" fill="none" xmlns="http://www.w3.org/2000/svg">
<rect width="1000" height="1000" fill="#8C53DC"/>
<path d="M69.6944 471.7C69.6944 439.065 91.6604 417.308 124.714 417.308C157.768 417.308 179.734 439.065 179.734 471.7C179.734 504.335 157.768 526.092 124.714 526.092C91.6604 526.092 69.6944 504.335 69.6944 471.7ZM100.028 471.7C100.028 486.972 109.861 497.641 124.714 497.641C139.567 497.641 149.4 486.972 149.4 471.7C149.4 456.219 139.567 445.759 124.714 445.759C109.861 445.759 100.028 456.219 100.028 471.7ZM307.727 473.792C307.727 505.59 289.317 526.092 261.703 526.092C241.41 526.092 229.904 515.004 229.904 504.126V502.034H228.021V576.3H197.478L197.687 471.7C197.687 439.065 219.653 417.308 252.707 417.308C285.761 417.308 307.727 437.6 307.727 473.792ZM277.393 471.7C277.393 456.219 267.351 445.759 252.707 445.759C237.645 445.759 228.021 456.01 228.021 471.7C228.021 486.972 236.389 497.641 252.916 497.641C267.769 497.641 277.393 487.39 277.393 471.7ZM435.715 473.792C435.715 505.59 417.305 526.092 389.691 526.092C369.398 526.092 357.892 515.004 357.892 504.126V502.034H356.009V576.3H325.466L325.675 471.7C325.675 439.065 347.641 417.308 380.695 417.308C413.749 417.308 435.715 437.6 435.715 473.792ZM405.381 471.7C405.381 456.219 395.339 445.759 380.695 445.759C365.633 445.759 356.009 456.01 356.009 471.7C356.009 486.972 364.377 497.641 380.904 497.641C395.757 497.641 405.381 487.39 405.381 471.7ZM451.81 450.362C451.81 427.559 469.592 417.099 499.508 417.099C514.988 417.099 527.122 418.772 538.419 422.956V449.316C531.097 446.805 515.616 441.784 497.416 441.784C486.956 441.784 482.353 444.295 482.353 448.688C482.353 463.96 542.812 454.755 542.812 492.411C542.812 515.004 525.239 526.301 495.324 526.301C479.843 526.301 467.5 524.628 456.203 520.444V493.875C463.525 496.595 479.215 501.616 497.416 501.616C507.876 501.616 512.478 498.268 512.478 494.084C512.478 478.813 451.81 487.808 451.81 450.362ZM559.991 524V367.1H590.325V477.976L629.655 419.4H663.754L630.282 467.307L674.424 524H639.069L613.546 491.156L590.325 524H559.991ZM690.022 391.158C690.022 381.744 696.926 375.468 707.386 375.468C717.636 375.468 724.54 381.744 724.54 391.158C724.54 400.572 717.636 406.848 707.386 406.848C696.926 406.848 690.022 400.572 690.022 391.158ZM692.114 524V419.4H722.657V524H692.114ZM742.42 524V367.1H772.963V524H742.42ZM790.732 524V367.1H821.276V524H790.732ZM838.626 450.362C838.626 427.559 856.408 417.099 886.324 417.099C901.805 417.099 913.938 418.772 925.235 422.956V449.316C917.913 446.805 902.432 441.784 884.232 441.784C873.772 441.784 869.169 444.295 869.169 448.688C869.169 463.96 929.628 454.755 929.628 492.411C929.628 515.004 912.055 526.301 882.14 526.301C866.659 526.301 854.316 524.628 843.019 520.444V493.875C850.341 496.595 866.031 501.616 884.232 501.616C894.692 501.616 899.294 498.268 899.294 494.084C899.294 478.813 838.626 487.808 838.626 450.362Z" fill="white"/>
<path d="M140.248 614.424V625.875C139.861 626.448 139.245 627.092 138.4 627.809C137.555 628.51 136.388 629.126 134.898 629.656C133.423 630.172 131.518 630.43 129.184 630.43C127.279 630.43 125.524 630.1 123.92 629.441C122.33 628.768 120.948 627.794 119.773 626.52C118.613 625.23 117.711 623.669 117.066 621.836C116.436 619.988 116.121 617.897 116.121 615.562V613.135C116.121 610.8 116.393 608.716 116.938 606.883C117.496 605.049 118.312 603.495 119.387 602.221C120.461 600.932 121.779 599.958 123.34 599.299C124.901 598.626 126.691 598.289 128.711 598.289C131.103 598.289 133.101 598.704 134.705 599.535C136.324 600.352 137.584 601.483 138.486 602.93C139.403 604.376 139.99 606.023 140.248 607.871H136.102C135.915 606.74 135.543 605.708 134.984 604.777C134.44 603.846 133.66 603.102 132.643 602.543C131.626 601.97 130.315 601.684 128.711 601.684C127.264 601.684 126.011 601.949 124.951 602.479C123.891 603.008 123.018 603.768 122.33 604.756C121.643 605.744 121.127 606.94 120.783 608.344C120.454 609.747 120.289 611.33 120.289 613.092V615.562C120.289 617.367 120.497 618.979 120.912 620.396C121.342 621.814 121.951 623.025 122.738 624.027C123.526 625.016 124.464 625.768 125.553 626.283C126.656 626.799 127.873 627.057 129.205 627.057C130.68 627.057 131.876 626.935 132.793 626.691C133.71 626.434 134.426 626.133 134.941 625.789C135.457 625.431 135.851 625.094 136.123 624.779V617.775H128.883V614.424H140.248ZM150.84 597V630H146.844V597H150.84ZM156.168 618.635V618.141C156.168 616.465 156.411 614.911 156.898 613.479C157.385 612.032 158.087 610.779 159.004 609.719C159.921 608.645 161.031 607.814 162.334 607.227C163.637 606.625 165.098 606.324 166.717 606.324C168.35 606.324 169.818 606.625 171.121 607.227C172.439 607.814 173.556 608.645 174.473 609.719C175.404 610.779 176.113 612.032 176.6 613.479C177.087 614.911 177.33 616.465 177.33 618.141V618.635C177.33 620.311 177.087 621.865 176.6 623.297C176.113 624.729 175.404 625.982 174.473 627.057C173.556 628.117 172.446 628.947 171.143 629.549C169.854 630.136 168.393 630.43 166.76 630.43C165.127 630.43 163.659 630.136 162.355 629.549C161.052 628.947 159.935 628.117 159.004 627.057C158.087 625.982 157.385 624.729 156.898 623.297C156.411 621.865 156.168 620.311 156.168 618.635ZM160.143 618.141V618.635C160.143 619.795 160.279 620.891 160.551 621.922C160.823 622.939 161.231 623.841 161.775 624.629C162.334 625.417 163.029 626.04 163.859 626.498C164.69 626.942 165.657 627.164 166.76 627.164C167.848 627.164 168.801 626.942 169.617 626.498C170.448 626.04 171.135 625.417 171.68 624.629C172.224 623.841 172.632 622.939 172.904 621.922C173.191 620.891 173.334 619.795 173.334 618.635V618.141C173.334 616.995 173.191 615.913 172.904 614.896C172.632 613.865 172.217 612.956 171.658 612.168C171.114 611.366 170.426 610.736 169.596 610.277C168.779 609.819 167.82 609.59 166.717 609.59C165.628 609.59 164.669 609.819 163.838 610.277C163.021 610.736 162.334 611.366 161.775 612.168C161.231 612.956 160.823 613.865 160.551 614.896C160.279 615.913 160.143 616.995 160.143 618.141ZM182.293 597H186.289V625.488L185.945 630H182.293V597ZM201.994 618.184V618.635C201.994 620.325 201.794 621.893 201.393 623.34C200.992 624.772 200.404 626.018 199.631 627.078C198.857 628.138 197.912 628.962 196.795 629.549C195.678 630.136 194.396 630.43 192.949 630.43C191.474 630.43 190.178 630.179 189.061 629.678C187.958 629.162 187.027 628.424 186.268 627.465C185.508 626.505 184.9 625.345 184.441 623.984C183.997 622.624 183.689 621.091 183.518 619.387V617.41C183.689 615.691 183.997 614.152 184.441 612.791C184.9 611.43 185.508 610.27 186.268 609.311C187.027 608.337 187.958 607.599 189.061 607.098C190.163 606.582 191.445 606.324 192.906 606.324C194.367 606.324 195.663 606.611 196.795 607.184C197.926 607.742 198.872 608.544 199.631 609.59C200.404 610.635 200.992 611.889 201.393 613.35C201.794 614.796 201.994 616.408 201.994 618.184ZM197.998 618.635V618.184C197.998 617.023 197.891 615.935 197.676 614.918C197.461 613.887 197.117 612.984 196.645 612.211C196.172 611.423 195.549 610.807 194.775 610.363C194.002 609.905 193.049 609.676 191.918 609.676C190.915 609.676 190.042 609.848 189.297 610.191C188.566 610.535 187.943 611.001 187.428 611.588C186.912 612.161 186.49 612.82 186.16 613.564C185.845 614.295 185.609 615.054 185.451 615.842V621.02C185.68 622.022 186.053 622.989 186.568 623.92C187.098 624.837 187.8 625.589 188.674 626.176C189.562 626.763 190.658 627.057 191.961 627.057C193.035 627.057 193.952 626.842 194.711 626.412C195.484 625.968 196.107 625.359 196.58 624.586C197.067 623.812 197.425 622.917 197.654 621.9C197.883 620.883 197.998 619.795 197.998 618.635ZM220.729 626.025V614.059C220.729 613.142 220.542 612.347 220.17 611.674C219.812 610.986 219.268 610.456 218.537 610.084C217.807 609.712 216.904 609.525 215.83 609.525C214.827 609.525 213.947 609.697 213.188 610.041C212.443 610.385 211.855 610.836 211.426 611.395C211.01 611.953 210.803 612.555 210.803 613.199H206.828C206.828 612.368 207.043 611.545 207.473 610.729C207.902 609.912 208.518 609.174 209.32 608.516C210.137 607.842 211.111 607.312 212.242 606.926C213.388 606.525 214.663 606.324 216.066 606.324C217.757 606.324 219.246 606.611 220.535 607.184C221.839 607.757 222.855 608.623 223.586 609.783C224.331 610.929 224.703 612.368 224.703 614.102V624.93C224.703 625.703 224.768 626.527 224.896 627.4C225.04 628.274 225.247 629.026 225.52 629.656V630H221.373C221.173 629.542 221.015 628.933 220.9 628.174C220.786 627.4 220.729 626.684 220.729 626.025ZM221.416 615.906L221.459 618.699H217.441C216.31 618.699 215.3 618.792 214.412 618.979C213.524 619.15 212.779 619.415 212.178 619.773C211.576 620.132 211.118 620.583 210.803 621.127C210.488 621.657 210.33 622.28 210.33 622.996C210.33 623.727 210.495 624.393 210.824 624.994C211.154 625.596 211.648 626.076 212.307 626.434C212.98 626.777 213.803 626.949 214.777 626.949C215.995 626.949 217.069 626.691 218 626.176C218.931 625.66 219.669 625.03 220.213 624.285C220.771 623.54 221.072 622.817 221.115 622.115L222.812 624.027C222.712 624.629 222.44 625.295 221.996 626.025C221.552 626.756 220.958 627.458 220.213 628.131C219.482 628.79 218.609 629.341 217.592 629.785C216.589 630.215 215.458 630.43 214.197 630.43C212.622 630.43 211.24 630.122 210.051 629.506C208.876 628.89 207.96 628.066 207.301 627.035C206.656 625.99 206.334 624.822 206.334 623.533C206.334 622.287 206.577 621.191 207.064 620.246C207.551 619.286 208.253 618.492 209.17 617.861C210.087 617.217 211.189 616.73 212.479 616.4C213.768 616.071 215.207 615.906 216.797 615.906H221.416ZM235.273 597V630H231.277V597H235.273ZM277.254 613.371V615.348C277.254 617.697 276.96 619.802 276.373 621.664C275.786 623.526 274.941 625.109 273.838 626.412C272.735 627.715 271.41 628.711 269.863 629.398C268.331 630.086 266.612 630.43 264.707 630.43C262.859 630.43 261.162 630.086 259.615 629.398C258.083 628.711 256.751 627.715 255.619 626.412C254.502 625.109 253.635 623.526 253.02 621.664C252.404 619.802 252.096 617.697 252.096 615.348V613.371C252.096 611.022 252.396 608.924 252.998 607.076C253.614 605.214 254.48 603.632 255.598 602.328C256.715 601.01 258.04 600.008 259.572 599.32C261.119 598.633 262.816 598.289 264.664 598.289C266.569 598.289 268.288 598.633 269.82 599.32C271.367 600.008 272.692 601.01 273.795 602.328C274.912 603.632 275.764 605.214 276.352 607.076C276.953 608.924 277.254 611.022 277.254 613.371ZM273.15 615.348V613.328C273.15 611.466 272.957 609.819 272.57 608.387C272.198 606.954 271.646 605.751 270.916 604.777C270.186 603.803 269.29 603.066 268.23 602.564C267.185 602.063 265.996 601.812 264.664 601.812C263.375 601.812 262.208 602.063 261.162 602.564C260.131 603.066 259.243 603.803 258.498 604.777C257.768 605.751 257.202 606.954 256.801 608.387C256.4 609.819 256.199 611.466 256.199 613.328V615.348C256.199 617.224 256.4 618.885 256.801 620.332C257.202 621.764 257.775 622.975 258.52 623.963C259.279 624.937 260.174 625.674 261.205 626.176C262.251 626.677 263.418 626.928 264.707 626.928C266.053 626.928 267.249 626.677 268.295 626.176C269.34 625.674 270.221 624.937 270.938 623.963C271.668 622.975 272.219 621.764 272.592 620.332C272.964 618.885 273.15 617.224 273.15 615.348ZM286.836 611.223V638.938H282.84V606.754H286.492L286.836 611.223ZM302.498 618.184V618.635C302.498 620.325 302.298 621.893 301.896 623.34C301.495 624.772 300.908 626.018 300.135 627.078C299.376 628.138 298.438 628.962 297.32 629.549C296.203 630.136 294.921 630.43 293.475 630.43C291.999 630.43 290.696 630.186 289.564 629.699C288.433 629.212 287.473 628.503 286.686 627.572C285.898 626.641 285.268 625.524 284.795 624.221C284.337 622.917 284.021 621.449 283.85 619.816V617.41C284.021 615.691 284.344 614.152 284.816 612.791C285.289 611.43 285.912 610.27 286.686 609.311C287.473 608.337 288.426 607.599 289.543 607.098C290.66 606.582 291.949 606.324 293.41 606.324C294.871 606.324 296.167 606.611 297.299 607.184C298.43 607.742 299.383 608.544 300.156 609.59C300.93 610.635 301.51 611.889 301.896 613.35C302.298 614.796 302.498 616.408 302.498 618.184ZM298.502 618.635V618.184C298.502 617.023 298.38 615.935 298.137 614.918C297.893 613.887 297.514 612.984 296.998 612.211C296.497 611.423 295.852 610.807 295.064 610.363C294.277 609.905 293.339 609.676 292.25 609.676C291.247 609.676 290.374 609.848 289.629 610.191C288.898 610.535 288.275 611.001 287.76 611.588C287.244 612.161 286.822 612.82 286.492 613.564C286.177 614.295 285.941 615.054 285.783 615.842V621.406C286.07 622.409 286.471 623.354 286.986 624.242C287.502 625.116 288.189 625.825 289.049 626.369C289.908 626.899 290.99 627.164 292.293 627.164C293.367 627.164 294.291 626.942 295.064 626.498C295.852 626.04 296.497 625.417 296.998 624.629C297.514 623.841 297.893 622.939 298.137 621.922C298.38 620.891 298.502 619.795 298.502 618.635ZM311.543 611.223V638.938H307.547V606.754H311.199L311.543 611.223ZM327.205 618.184V618.635C327.205 620.325 327.005 621.893 326.604 623.34C326.202 624.772 325.615 626.018 324.842 627.078C324.083 628.138 323.145 628.962 322.027 629.549C320.91 630.136 319.628 630.43 318.182 630.43C316.706 630.43 315.403 630.186 314.271 629.699C313.14 629.212 312.18 628.503 311.393 627.572C310.605 626.641 309.975 625.524 309.502 624.221C309.044 622.917 308.729 621.449 308.557 619.816V617.41C308.729 615.691 309.051 614.152 309.523 612.791C309.996 611.43 310.619 610.27 311.393 609.311C312.18 608.337 313.133 607.599 314.25 607.098C315.367 606.582 316.656 606.324 318.117 606.324C319.578 606.324 320.874 606.611 322.006 607.184C323.137 607.742 324.09 608.544 324.863 609.59C325.637 610.635 326.217 611.889 326.604 613.35C327.005 614.796 327.205 616.408 327.205 618.184ZM323.209 618.635V618.184C323.209 617.023 323.087 615.935 322.844 614.918C322.6 613.887 322.221 612.984 321.705 612.211C321.204 611.423 320.559 610.807 319.771 610.363C318.984 609.905 318.046 609.676 316.957 609.676C315.954 609.676 315.081 609.848 314.336 610.191C313.605 610.535 312.982 611.001 312.467 611.588C311.951 612.161 311.529 612.82 311.199 613.564C310.884 614.295 310.648 615.054 310.49 615.842V621.406C310.777 622.409 311.178 623.354 311.693 624.242C312.209 625.116 312.896 625.825 313.756 626.369C314.615 626.899 315.697 627.164 317 627.164C318.074 627.164 318.998 626.942 319.771 626.498C320.559 626.04 321.204 625.417 321.705 624.629C322.221 623.841 322.6 622.939 322.844 621.922C323.087 620.891 323.209 619.795 323.209 618.635ZM331.223 618.635V618.141C331.223 616.465 331.466 614.911 331.953 613.479C332.44 612.032 333.142 610.779 334.059 609.719C334.975 608.645 336.085 607.814 337.389 607.227C338.692 606.625 340.153 606.324 341.771 606.324C343.404 606.324 344.872 606.625 346.176 607.227C347.493 607.814 348.611 608.645 349.527 609.719C350.458 610.779 351.167 612.032 351.654 613.479C352.141 614.911 352.385 616.465 352.385 618.141V618.635C352.385 620.311 352.141 621.865 351.654 623.297C351.167 624.729 350.458 625.982 349.527 627.057C348.611 628.117 347.501 628.947 346.197 629.549C344.908 630.136 343.447 630.43 341.814 630.43C340.182 630.43 338.714 630.136 337.41 629.549C336.107 628.947 334.99 628.117 334.059 627.057C333.142 625.982 332.44 624.729 331.953 623.297C331.466 621.865 331.223 620.311 331.223 618.635ZM335.197 618.141V618.635C335.197 619.795 335.333 620.891 335.605 621.922C335.878 622.939 336.286 623.841 336.83 624.629C337.389 625.417 338.083 626.04 338.914 626.498C339.745 626.942 340.712 627.164 341.814 627.164C342.903 627.164 343.855 626.942 344.672 626.498C345.503 626.04 346.19 625.417 346.734 624.629C347.279 623.841 347.687 622.939 347.959 621.922C348.245 620.891 348.389 619.795 348.389 618.635V618.141C348.389 616.995 348.245 615.913 347.959 614.896C347.687 613.865 347.271 612.956 346.713 612.168C346.169 611.366 345.481 610.736 344.65 610.277C343.834 609.819 342.874 609.59 341.771 609.59C340.683 609.59 339.723 609.819 338.893 610.277C338.076 610.736 337.389 611.366 336.83 612.168C336.286 612.956 335.878 613.865 335.605 614.896C335.333 615.913 335.197 616.995 335.197 618.141ZM361.344 610.406V630H357.369V606.754H361.236L361.344 610.406ZM368.605 606.625L368.584 610.32C368.255 610.249 367.939 610.206 367.639 610.191C367.352 610.163 367.023 610.148 366.65 610.148C365.734 610.148 364.924 610.292 364.223 610.578C363.521 610.865 362.926 611.266 362.439 611.781C361.952 612.297 361.566 612.913 361.279 613.629C361.007 614.331 360.828 615.104 360.742 615.949L359.625 616.594C359.625 615.19 359.761 613.872 360.033 612.641C360.32 611.409 360.757 610.32 361.344 609.375C361.931 608.415 362.676 607.671 363.578 607.141C364.495 606.596 365.583 606.324 366.844 606.324C367.13 606.324 367.46 606.36 367.832 606.432C368.204 606.489 368.462 606.553 368.605 606.625ZM383.086 606.754V609.805H370.518V606.754H383.086ZM374.771 601.104H378.746V624.242C378.746 625.03 378.868 625.624 379.111 626.025C379.355 626.426 379.67 626.691 380.057 626.82C380.443 626.949 380.859 627.014 381.303 627.014C381.632 627.014 381.976 626.985 382.334 626.928C382.706 626.856 382.986 626.799 383.172 626.756L383.193 630C382.878 630.1 382.463 630.193 381.947 630.279C381.446 630.38 380.837 630.43 380.121 630.43C379.147 630.43 378.252 630.236 377.436 629.85C376.619 629.463 375.967 628.818 375.48 627.916C375.008 626.999 374.771 625.768 374.771 624.221V601.104ZM401.971 624.629V606.754H405.967V630H402.164L401.971 624.629ZM402.723 619.73L404.377 619.688C404.377 621.234 404.212 622.667 403.883 623.984C403.568 625.288 403.052 626.419 402.336 627.379C401.62 628.339 400.682 629.09 399.521 629.635C398.361 630.165 396.951 630.43 395.289 630.43C394.158 630.43 393.119 630.265 392.174 629.936C391.243 629.606 390.441 629.098 389.768 628.41C389.094 627.723 388.572 626.827 388.199 625.725C387.841 624.622 387.662 623.297 387.662 621.75V606.754H391.637V621.793C391.637 622.839 391.751 623.705 391.98 624.393C392.224 625.066 392.546 625.603 392.947 626.004C393.363 626.391 393.821 626.663 394.322 626.82C394.838 626.978 395.368 627.057 395.912 627.057C397.602 627.057 398.941 626.734 399.93 626.09C400.918 625.431 401.627 624.55 402.057 623.447C402.501 622.33 402.723 621.091 402.723 619.73ZM416 611.717V630H412.025V606.754H415.785L416 611.717ZM415.055 617.496L413.4 617.432C413.415 615.842 413.651 614.374 414.109 613.027C414.568 611.667 415.212 610.485 416.043 609.482C416.874 608.48 417.862 607.706 419.008 607.162C420.168 606.604 421.45 606.324 422.854 606.324C423.999 606.324 425.031 606.482 425.947 606.797C426.864 607.098 427.645 607.585 428.289 608.258C428.948 608.931 429.449 609.805 429.793 610.879C430.137 611.939 430.309 613.235 430.309 614.768V630H426.312V614.725C426.312 613.507 426.133 612.533 425.775 611.803C425.417 611.058 424.895 610.521 424.207 610.191C423.52 609.848 422.674 609.676 421.672 609.676C420.684 609.676 419.781 609.883 418.965 610.299C418.163 610.714 417.468 611.287 416.881 612.018C416.308 612.748 415.857 613.586 415.527 614.531C415.212 615.462 415.055 616.451 415.055 617.496ZM440.664 606.754V630H436.668V606.754H440.664ZM436.367 600.588C436.367 599.943 436.561 599.399 436.947 598.955C437.348 598.511 437.936 598.289 438.709 598.289C439.468 598.289 440.048 598.511 440.449 598.955C440.865 599.399 441.072 599.943 441.072 600.588C441.072 601.204 440.865 601.734 440.449 602.178C440.048 602.607 439.468 602.822 438.709 602.822C437.936 602.822 437.348 602.607 436.947 602.178C436.561 601.734 436.367 601.204 436.367 600.588ZM456.777 606.754V609.805H444.209V606.754H456.777ZM448.463 601.104H452.438V624.242C452.438 625.03 452.559 625.624 452.803 626.025C453.046 626.426 453.361 626.691 453.748 626.82C454.135 626.949 454.55 627.014 454.994 627.014C455.324 627.014 455.667 626.985 456.025 626.928C456.398 626.856 456.677 626.799 456.863 626.756L456.885 630C456.57 630.1 456.154 630.193 455.639 630.279C455.137 630.38 454.529 630.43 453.812 630.43C452.839 630.43 451.943 630.236 451.127 629.85C450.311 629.463 449.659 628.818 449.172 627.916C448.699 626.999 448.463 625.768 448.463 624.221V601.104ZM465.758 606.754V630H461.762V606.754H465.758ZM461.461 600.588C461.461 599.943 461.654 599.399 462.041 598.955C462.442 598.511 463.029 598.289 463.803 598.289C464.562 598.289 465.142 598.511 465.543 598.955C465.958 599.399 466.166 599.943 466.166 600.588C466.166 601.204 465.958 601.734 465.543 602.178C465.142 602.607 464.562 602.822 463.803 602.822C463.029 602.822 462.442 602.607 462.041 602.178C461.654 601.734 461.461 601.204 461.461 600.588ZM481.785 630.43C480.167 630.43 478.699 630.158 477.381 629.613C476.077 629.055 474.953 628.274 474.008 627.271C473.077 626.269 472.361 625.08 471.859 623.705C471.358 622.33 471.107 620.826 471.107 619.193V618.291C471.107 616.4 471.387 614.717 471.945 613.242C472.504 611.753 473.263 610.492 474.223 609.461C475.182 608.43 476.271 607.649 477.488 607.119C478.706 606.589 479.966 606.324 481.27 606.324C482.931 606.324 484.363 606.611 485.566 607.184C486.784 607.757 487.779 608.559 488.553 609.59C489.326 610.607 489.899 611.81 490.271 613.199C490.644 614.574 490.83 616.078 490.83 617.711V619.494H473.471V616.25H486.855V615.949C486.798 614.918 486.583 613.915 486.211 612.941C485.853 611.967 485.28 611.165 484.492 610.535C483.704 609.905 482.63 609.59 481.27 609.59C480.367 609.59 479.536 609.783 478.777 610.17C478.018 610.542 477.367 611.101 476.822 611.846C476.278 612.59 475.855 613.5 475.555 614.574C475.254 615.648 475.104 616.887 475.104 618.291V619.193C475.104 620.296 475.254 621.335 475.555 622.309C475.87 623.268 476.321 624.113 476.908 624.844C477.51 625.574 478.233 626.147 479.078 626.562C479.938 626.978 480.911 627.186 482 627.186C483.404 627.186 484.592 626.899 485.566 626.326C486.54 625.753 487.393 624.987 488.123 624.027L490.529 625.939C490.028 626.699 489.391 627.422 488.617 628.109C487.844 628.797 486.891 629.355 485.76 629.785C484.643 630.215 483.318 630.43 481.785 630.43ZM509.006 623.834C509.006 623.261 508.877 622.731 508.619 622.244C508.376 621.743 507.867 621.292 507.094 620.891C506.335 620.475 505.189 620.117 503.656 619.816C502.367 619.544 501.2 619.222 500.154 618.85C499.123 618.477 498.242 618.026 497.512 617.496C496.796 616.966 496.244 616.343 495.857 615.627C495.471 614.911 495.277 614.073 495.277 613.113C495.277 612.197 495.478 611.33 495.879 610.514C496.294 609.697 496.874 608.974 497.619 608.344C498.378 607.714 499.288 607.219 500.348 606.861C501.408 606.503 502.589 606.324 503.893 606.324C505.755 606.324 507.344 606.654 508.662 607.312C509.98 607.971 510.99 608.852 511.691 609.955C512.393 611.044 512.744 612.254 512.744 613.586H508.77C508.77 612.941 508.576 612.318 508.189 611.717C507.817 611.101 507.266 610.592 506.535 610.191C505.819 609.79 504.938 609.59 503.893 609.59C502.79 609.59 501.895 609.762 501.207 610.105C500.534 610.435 500.04 610.857 499.725 611.373C499.424 611.889 499.273 612.433 499.273 613.006C499.273 613.436 499.345 613.822 499.488 614.166C499.646 614.495 499.918 614.803 500.305 615.09C500.691 615.362 501.236 615.62 501.938 615.863C502.639 616.107 503.535 616.35 504.623 616.594C506.528 617.023 508.096 617.539 509.328 618.141C510.56 618.742 511.477 619.48 512.078 620.354C512.68 621.227 512.98 622.287 512.98 623.533C512.98 624.55 512.766 625.481 512.336 626.326C511.921 627.171 511.312 627.902 510.51 628.518C509.722 629.119 508.777 629.592 507.674 629.936C506.585 630.265 505.361 630.43 504 630.43C501.952 630.43 500.219 630.064 498.801 629.334C497.383 628.604 496.309 627.658 495.578 626.498C494.848 625.338 494.482 624.113 494.482 622.824H498.479C498.536 623.913 498.851 624.779 499.424 625.424C499.997 626.054 500.699 626.505 501.529 626.777C502.36 627.035 503.184 627.164 504 627.164C505.089 627.164 505.998 627.021 506.729 626.734C507.473 626.448 508.039 626.054 508.426 625.553C508.812 625.051 509.006 624.479 509.006 623.834ZM541.189 618.334H533.047V614.059H541.189C542.607 614.059 543.753 613.829 544.627 613.371C545.501 612.913 546.138 612.283 546.539 611.48C546.954 610.664 547.162 609.733 547.162 608.688C547.162 607.699 546.954 606.775 546.539 605.916C546.138 605.042 545.501 604.34 544.627 603.811C543.753 603.281 542.607 603.016 541.189 603.016H534.701V630H529.309V598.719H541.189C543.61 598.719 545.665 599.148 547.355 600.008C549.06 600.853 550.356 602.027 551.244 603.531C552.132 605.021 552.576 606.725 552.576 608.645C552.576 610.664 552.132 612.397 551.244 613.844C550.356 615.29 549.06 616.4 547.355 617.174C545.665 617.947 543.61 618.334 541.189 618.334ZM555.605 618.635V618.141C555.605 616.465 555.849 614.911 556.336 613.479C556.823 612.032 557.525 610.779 558.441 609.719C559.372 608.645 560.504 607.814 561.836 607.227C563.182 606.625 564.701 606.324 566.391 606.324C568.095 606.324 569.613 606.625 570.945 607.227C572.292 607.814 573.43 608.645 574.361 609.719C575.292 610.779 576.001 612.032 576.488 613.479C576.975 614.911 577.219 616.465 577.219 618.141V618.635C577.219 620.311 576.975 621.865 576.488 623.297C576.001 624.729 575.292 625.982 574.361 627.057C573.43 628.117 572.299 628.947 570.967 629.549C569.635 630.136 568.124 630.43 566.434 630.43C564.729 630.43 563.204 630.136 561.857 629.549C560.525 628.947 559.394 628.117 558.463 627.057C557.532 625.982 556.823 624.729 556.336 623.297C555.849 621.865 555.605 620.311 555.605 618.635ZM560.783 618.141V618.635C560.783 619.68 560.891 620.669 561.105 621.6C561.32 622.531 561.657 623.347 562.115 624.049C562.574 624.751 563.161 625.302 563.877 625.703C564.593 626.104 565.445 626.305 566.434 626.305C567.393 626.305 568.224 626.104 568.926 625.703C569.642 625.302 570.229 624.751 570.688 624.049C571.146 623.347 571.482 622.531 571.697 621.6C571.926 620.669 572.041 619.68 572.041 618.635V618.141C572.041 617.109 571.926 616.135 571.697 615.219C571.482 614.288 571.139 613.464 570.666 612.748C570.208 612.032 569.62 611.473 568.904 611.072C568.202 610.657 567.365 610.449 566.391 610.449C565.417 610.449 564.572 610.657 563.855 611.072C563.154 611.473 562.574 612.032 562.115 612.748C561.657 613.464 561.32 614.288 561.105 615.219C560.891 616.135 560.783 617.109 560.783 618.141ZM587.875 624.844L593.246 606.754H596.555L595.652 612.168L590.238 630H587.273L587.875 624.844ZM584.717 606.754L588.906 624.93L589.25 630H585.941L579.646 606.754H584.717ZM601.582 624.715L605.643 606.754H610.691L604.418 630H601.109L601.582 624.715ZM597.113 606.754L602.42 624.629L603.086 630H600.121L594.643 612.146L593.74 606.754H597.113ZM624.463 630.43C622.744 630.43 621.19 630.15 619.801 629.592C618.426 629.019 617.251 628.224 616.277 627.207C615.318 626.19 614.58 624.994 614.064 623.619C613.549 622.244 613.291 620.762 613.291 619.172V618.312C613.291 616.493 613.556 614.846 614.086 613.371C614.616 611.896 615.354 610.635 616.299 609.59C617.244 608.53 618.361 607.721 619.65 607.162C620.939 606.604 622.336 606.324 623.84 606.324C625.501 606.324 626.955 606.604 628.201 607.162C629.447 607.721 630.479 608.508 631.295 609.525C632.126 610.528 632.742 611.724 633.143 613.113C633.558 614.503 633.766 616.035 633.766 617.711V619.924H615.805V616.207H628.652V615.799C628.624 614.868 628.438 613.994 628.094 613.178C627.764 612.361 627.256 611.702 626.568 611.201C625.881 610.7 624.964 610.449 623.818 610.449C622.959 610.449 622.193 610.635 621.52 611.008C620.861 611.366 620.309 611.889 619.865 612.576C619.421 613.264 619.077 614.094 618.834 615.068C618.605 616.028 618.49 617.109 618.49 618.312V619.172C618.49 620.189 618.626 621.134 618.898 622.008C619.185 622.867 619.6 623.619 620.145 624.264C620.689 624.908 621.348 625.417 622.121 625.789C622.895 626.147 623.775 626.326 624.764 626.326C626.01 626.326 627.12 626.076 628.094 625.574C629.068 625.073 629.913 624.364 630.629 623.447L633.357 626.09C632.856 626.82 632.204 627.522 631.402 628.195C630.6 628.854 629.619 629.391 628.459 629.807C627.313 630.222 625.981 630.43 624.463 630.43ZM643.004 611.18V630H637.826V606.754H642.768L643.004 611.18ZM650.115 606.604L650.072 611.416C649.757 611.359 649.413 611.316 649.041 611.287C648.683 611.258 648.325 611.244 647.967 611.244C647.079 611.244 646.298 611.373 645.625 611.631C644.952 611.874 644.386 612.232 643.928 612.705C643.484 613.163 643.14 613.722 642.896 614.381C642.653 615.04 642.51 615.777 642.467 616.594L641.285 616.68C641.285 615.219 641.428 613.865 641.715 612.619C642.001 611.373 642.431 610.277 643.004 609.332C643.591 608.387 644.322 607.649 645.195 607.119C646.083 606.589 647.107 606.324 648.268 606.324C648.583 606.324 648.919 606.353 649.277 606.41C649.65 606.467 649.929 606.532 650.115 606.604ZM663.178 630.43C661.459 630.43 659.905 630.15 658.516 629.592C657.141 629.019 655.966 628.224 654.992 627.207C654.033 626.19 653.295 624.994 652.779 623.619C652.264 622.244 652.006 620.762 652.006 619.172V618.312C652.006 616.493 652.271 614.846 652.801 613.371C653.331 611.896 654.068 610.635 655.014 609.59C655.959 608.53 657.076 607.721 658.365 607.162C659.654 606.604 661.051 606.324 662.555 606.324C664.216 606.324 665.67 606.604 666.916 607.162C668.162 607.721 669.193 608.508 670.01 609.525C670.84 610.528 671.456 611.724 671.857 613.113C672.273 614.503 672.48 616.035 672.48 617.711V619.924H654.52V616.207H667.367V615.799C667.339 614.868 667.152 613.994 666.809 613.178C666.479 612.361 665.971 611.702 665.283 611.201C664.596 610.7 663.679 610.449 662.533 610.449C661.674 610.449 660.908 610.635 660.234 611.008C659.576 611.366 659.024 611.889 658.58 612.576C658.136 613.264 657.792 614.094 657.549 615.068C657.32 616.028 657.205 617.109 657.205 618.312V619.172C657.205 620.189 657.341 621.134 657.613 622.008C657.9 622.867 658.315 623.619 658.859 624.264C659.404 624.908 660.062 625.417 660.836 625.789C661.609 626.147 662.49 626.326 663.479 626.326C664.725 626.326 665.835 626.076 666.809 625.574C667.783 625.073 668.628 624.364 669.344 623.447L672.072 626.09C671.571 626.82 670.919 627.522 670.117 628.195C669.315 628.854 668.334 629.391 667.174 629.807C666.028 630.222 664.696 630.43 663.178 630.43ZM690.699 625.188V597H695.898V630H691.193L690.699 625.188ZM675.574 618.635V618.184C675.574 616.422 675.782 614.818 676.197 613.371C676.613 611.91 677.214 610.657 678.002 609.611C678.79 608.551 679.749 607.742 680.881 607.184C682.012 606.611 683.287 606.324 684.705 606.324C686.109 606.324 687.34 606.596 688.4 607.141C689.46 607.685 690.363 608.465 691.107 609.482C691.852 610.485 692.447 611.688 692.891 613.092C693.335 614.481 693.65 616.028 693.836 617.732V619.172C693.65 620.833 693.335 622.352 692.891 623.727C692.447 625.102 691.852 626.29 691.107 627.293C690.363 628.296 689.453 629.069 688.379 629.613C687.319 630.158 686.08 630.43 684.662 630.43C683.258 630.43 681.991 630.136 680.859 629.549C679.742 628.962 678.79 628.138 678.002 627.078C677.214 626.018 676.613 624.772 676.197 623.34C675.782 621.893 675.574 620.325 675.574 618.635ZM680.752 618.184V618.635C680.752 619.695 680.845 620.683 681.031 621.6C681.232 622.516 681.54 623.326 681.955 624.027C682.37 624.715 682.908 625.259 683.566 625.66C684.24 626.047 685.042 626.24 685.973 626.24C687.147 626.24 688.114 625.982 688.873 625.467C689.632 624.951 690.227 624.257 690.656 623.383C691.1 622.495 691.401 621.507 691.559 620.418V616.529C691.473 615.684 691.294 614.896 691.021 614.166C690.764 613.436 690.413 612.798 689.969 612.254C689.525 611.695 688.973 611.266 688.314 610.965C687.67 610.65 686.904 610.492 686.016 610.492C685.07 610.492 684.268 610.693 683.609 611.094C682.951 611.495 682.406 612.046 681.977 612.748C681.561 613.45 681.253 614.266 681.053 615.197C680.852 616.128 680.752 617.124 680.752 618.184ZM712.291 597H717.469V625.037L716.975 630H712.291V597ZM732.637 618.162V618.613C732.637 620.332 732.443 621.915 732.057 623.361C731.684 624.794 731.111 626.04 730.338 627.1C729.579 628.16 728.633 628.983 727.502 629.57C726.385 630.143 725.089 630.43 723.613 630.43C722.167 630.43 720.906 630.158 719.832 629.613C718.758 629.069 717.855 628.296 717.125 627.293C716.409 626.29 715.829 625.094 715.385 623.705C714.941 622.316 714.626 620.783 714.439 619.107V617.668C714.626 615.978 714.941 614.445 715.385 613.07C715.829 611.681 716.409 610.485 717.125 609.482C717.855 608.465 718.751 607.685 719.811 607.141C720.885 606.596 722.138 606.324 723.57 606.324C725.06 606.324 726.37 606.611 727.502 607.184C728.648 607.757 729.6 608.573 730.359 609.633C731.118 610.678 731.684 611.924 732.057 613.371C732.443 614.818 732.637 616.415 732.637 618.162ZM727.459 618.613V618.162C727.459 617.117 727.373 616.135 727.201 615.219C727.029 614.288 726.743 613.471 726.342 612.77C725.955 612.068 725.425 611.516 724.752 611.115C724.093 610.7 723.27 610.492 722.281 610.492C721.365 610.492 720.577 610.65 719.918 610.965C719.259 611.28 718.708 611.71 718.264 612.254C717.82 612.798 717.469 613.428 717.211 614.145C716.967 614.861 716.803 615.634 716.717 616.465V620.354C716.846 621.428 717.118 622.416 717.533 623.318C717.963 624.206 718.564 624.923 719.338 625.467C720.111 625.997 721.107 626.262 722.324 626.262C723.284 626.262 724.093 626.068 724.752 625.682C725.411 625.295 725.934 624.758 726.32 624.07C726.721 623.368 727.008 622.552 727.18 621.621C727.366 620.69 727.459 619.688 727.459 618.613ZM743.508 627.465L749.824 606.754H755.367L746.043 633.545C745.828 634.118 745.549 634.741 745.205 635.414C744.861 636.087 744.41 636.725 743.852 637.326C743.307 637.942 742.627 638.436 741.811 638.809C740.994 639.195 740.006 639.389 738.846 639.389C738.387 639.389 737.943 639.346 737.514 639.26C737.098 639.188 736.704 639.109 736.332 639.023L736.311 635.07C736.454 635.085 736.626 635.099 736.826 635.113C737.041 635.128 737.213 635.135 737.342 635.135C738.201 635.135 738.917 635.027 739.49 634.812C740.063 634.612 740.529 634.283 740.887 633.824C741.259 633.366 741.574 632.75 741.832 631.977L743.508 627.465ZM739.941 606.754L745.463 624.156L746.387 629.613L742.799 630.537L734.355 606.754H739.941ZM786.262 621.943C786.262 621.299 786.161 620.726 785.961 620.225C785.775 619.723 785.438 619.265 784.951 618.85C784.464 618.434 783.777 618.033 782.889 617.646C782.015 617.245 780.898 616.837 779.537 616.422C778.048 615.964 776.673 615.455 775.412 614.896C774.166 614.324 773.077 613.665 772.146 612.92C771.215 612.161 770.492 611.294 769.977 610.32C769.461 609.332 769.203 608.193 769.203 606.904C769.203 605.63 769.468 604.469 769.998 603.424C770.542 602.378 771.309 601.476 772.297 600.717C773.299 599.943 774.481 599.349 775.842 598.934C777.202 598.504 778.706 598.289 780.354 598.289C782.674 598.289 784.672 598.719 786.348 599.578C788.038 600.438 789.334 601.59 790.236 603.037C791.153 604.484 791.611 606.081 791.611 607.828H786.262C786.262 606.797 786.04 605.887 785.596 605.1C785.166 604.298 784.507 603.667 783.619 603.209C782.745 602.751 781.635 602.521 780.289 602.521C779.014 602.521 777.954 602.715 777.109 603.102C776.264 603.488 775.634 604.011 775.219 604.67C774.803 605.329 774.596 606.074 774.596 606.904C774.596 607.492 774.732 608.029 775.004 608.516C775.276 608.988 775.691 609.432 776.25 609.848C776.809 610.249 777.51 610.628 778.355 610.986C779.201 611.344 780.196 611.688 781.342 612.018C783.075 612.533 784.586 613.106 785.875 613.736C787.164 614.352 788.238 615.054 789.098 615.842C789.957 616.63 790.602 617.525 791.031 618.527C791.461 619.516 791.676 620.64 791.676 621.9C791.676 623.218 791.411 624.407 790.881 625.467C790.351 626.512 789.592 627.408 788.604 628.152C787.63 628.883 786.455 629.449 785.08 629.85C783.719 630.236 782.201 630.43 780.525 630.43C779.021 630.43 777.539 630.229 776.078 629.828C774.632 629.427 773.314 628.818 772.125 628.002C770.936 627.171 769.991 626.14 769.289 624.908C768.587 623.662 768.236 622.208 768.236 620.547H773.629C773.629 621.564 773.801 622.43 774.145 623.146C774.503 623.863 774.997 624.45 775.627 624.908C776.257 625.352 776.988 625.682 777.818 625.896C778.663 626.111 779.566 626.219 780.525 626.219C781.786 626.219 782.839 626.04 783.684 625.682C784.543 625.324 785.188 624.822 785.617 624.178C786.047 623.533 786.262 622.788 786.262 621.943ZM801.15 597V630H795.951V597H801.15ZM815.588 606.754L805.469 617.969L799.926 623.641L798.572 619.258L802.762 614.08L809.336 606.754H815.588ZM810.453 630L802.912 619.086L806.178 615.455L816.447 630H810.453ZM824.418 606.754V630H819.219V606.754H824.418ZM818.875 600.652C818.875 599.865 819.133 599.213 819.648 598.697C820.178 598.167 820.909 597.902 821.84 597.902C822.757 597.902 823.48 598.167 824.01 598.697C824.54 599.213 824.805 599.865 824.805 600.652C824.805 601.426 824.54 602.07 824.01 602.586C823.48 603.102 822.757 603.359 821.84 603.359C820.909 603.359 820.178 603.102 819.648 602.586C819.133 602.07 818.875 601.426 818.875 600.652ZM835.633 597V630H830.434V597H835.633ZM846.848 597V630H841.648V597H846.848ZM865.561 623.705C865.561 623.189 865.432 622.724 865.174 622.309C864.916 621.879 864.422 621.492 863.691 621.148C862.975 620.805 861.915 620.49 860.512 620.203C859.28 619.931 858.148 619.609 857.117 619.236C856.1 618.85 855.227 618.384 854.496 617.84C853.766 617.296 853.2 616.651 852.799 615.906C852.398 615.161 852.197 614.302 852.197 613.328C852.197 612.383 852.405 611.488 852.82 610.643C853.236 609.798 853.83 609.053 854.604 608.408C855.377 607.764 856.315 607.255 857.418 606.883C858.535 606.51 859.781 606.324 861.156 606.324C863.104 606.324 864.773 606.654 866.162 607.312C867.566 607.957 868.64 608.838 869.385 609.955C870.13 611.058 870.502 612.304 870.502 613.693H865.324C865.324 613.077 865.167 612.505 864.852 611.975C864.551 611.43 864.092 610.993 863.477 610.664C862.861 610.32 862.087 610.148 861.156 610.148C860.268 610.148 859.531 610.292 858.943 610.578C858.37 610.85 857.941 611.208 857.654 611.652C857.382 612.096 857.246 612.583 857.246 613.113C857.246 613.5 857.318 613.851 857.461 614.166C857.618 614.467 857.876 614.746 858.234 615.004C858.592 615.247 859.079 615.477 859.695 615.691C860.326 615.906 861.113 616.114 862.059 616.314C863.835 616.687 865.36 617.167 866.635 617.754C867.924 618.327 868.912 619.072 869.6 619.988C870.287 620.891 870.631 622.036 870.631 623.426C870.631 624.457 870.409 625.402 869.965 626.262C869.535 627.107 868.905 627.844 868.074 628.475C867.243 629.09 866.248 629.57 865.088 629.914C863.942 630.258 862.653 630.43 861.221 630.43C859.115 630.43 857.332 630.057 855.871 629.312C854.41 628.553 853.3 627.587 852.541 626.412C851.796 625.223 851.424 623.992 851.424 622.717H856.43C856.487 623.676 856.752 624.443 857.225 625.016C857.712 625.574 858.313 625.982 859.029 626.24C859.76 626.484 860.512 626.605 861.285 626.605C862.216 626.605 862.997 626.484 863.627 626.24C864.257 625.982 864.737 625.639 865.066 625.209C865.396 624.765 865.561 624.264 865.561 623.705ZM875.379 627.422C875.379 626.62 875.651 625.947 876.195 625.402C876.74 624.844 877.477 624.564 878.408 624.564C879.354 624.564 880.091 624.844 880.621 625.402C881.165 625.947 881.438 626.62 881.438 627.422C881.438 628.224 881.165 628.897 880.621 629.441C880.091 629.986 879.354 630.258 878.408 630.258C877.477 630.258 876.74 629.986 876.195 629.441C875.651 628.897 875.379 628.224 875.379 627.422Z" fill="white"/>
</svg>
